<?xml version="1.0" encoding="UTF-8" standalone="no"?>
<svg
   xmlns:dc="http://purl.org/dc/elements/1.1/"
   xmlns:cc="http://creativecommons.org/ns#"
   xmlns:rdf="http://www.w3.org/1999/02/22-rdf-syntax-ns#"
   xmlns:svg="http://www.w3.org/2000/svg"
   xmlns="http://www.w3.org/2000/svg"
   id="svg15"
   xml:space="preserve"
   viewBox="0 0 1024 768"
   y="0px"
   x="0px"
   version="1.1"><metadata
     id="metadata21"><rdf:RDF><cc:Work
         rdf:about=""><dc:format>image/svg+xml</dc:format><dc:type
           rdf:resource="http://purl.org/dc/dcmitype/StillImage" /></cc:Work></rdf:RDF></metadata><defs
     id="defs19" /><g
     transform="matrix(1.0199,0,0,1.0199,-10.167,-7.7747)"
     id="logo-group"><path
       stroke-miterlimit="2"
       class="c1"
       d="m 283.26,379.61 c 6.8152,2.0311 14.481,4.39 14.481,14.022 0,8.3873 -6.7486,13.826 -17.167,13.826 -7.0107,0 -14.285,-2.6865 -19.593,-7.1422 l 3.9324,-8.2558 c 4.4549,3.9315 11.008,6.7486 15.792,6.7486 3.8657,0 6.1594,-1.7036 6.1594,-4.5864 0,-3.8008 -4.1936,-5.0459 -9.0431,-6.4873 -6.6837,-1.9658 -14.285,-4.1936 -14.285,-13.564 0,-8.2562 6.6837,-13.63 17.102,-13.63 5.963,0 12.187,1.8347 16.775,4.9144 l -3.8666,8.453 c -4.6522,-2.7522 -10.287,-4.6526 -13.891,-4.6526 -3.3423,0 -5.308,1.4419 -5.308,3.8662 0,3.6693 4.1288,4.9144 8.8458,6.3562 z"
       style="font-variant-ligatures:normal;fill:#f9f9f9;stroke-width:0;stroke-miterlimit:2"
       id="path12" /><path
       stroke-miterlimit="2"
       class="c1"
       d="m 338.09,361 v 8.6494 H 301.33 V 361 Z m -23.59,13.826 c 4.7837,-3.8004 10.222,0 10.222,0 v 32.042 h -10.287 v -32.042 z"
       style="font-variant-ligatures:normal;fill:#f9f9f9;stroke-width:0;stroke-miterlimit:2"
       id="path15" /><path
       stroke-miterlimit="2"
       class="c1"
       d="m 410.33,398.42 c 4.4558,0 8.7143,-2.2279 11.401,-5.7666 l 9.4359,4.1936 c -4.3243,6.4216 -11.925,10.549 -20.968,10.549 -14.153,0 -24.834,-10.091 -24.834,-23.523 0,-13.237 10.681,-23.262 24.834,-23.262 9.108,0 16.775,4.1279 21.1,10.549 l -9.5017,4.2594 c -2.6864,-3.5387 -6.9459,-5.7666 -11.467,-5.7666 -7.6666,0 -14.678,6.2905 -14.678,14.35 0,7.9945 7.0774,14.482 14.612,14.482 z"
       style="font-variant-ligatures:normal;fill:#f9f9f9;stroke-width:0;stroke-miterlimit:2"
       id="path18" /><path
       stroke-miterlimit="2"
       class="c1"
       d="m 476.89,361.07 -29.29,34.664 v 11.204 h -10.29 v -45.86 h 10.288 v 21.099 l 17.56,-21.1 z m 1.3108,45.934 h -12.32 l -8.3873,-13.171 c 1.3099,-7.9283 7.7972,-7.0112 7.7972,-7.0112 z"
       style="font-variant-ligatures:normal;fill:#f9f9f9;stroke-width:0;stroke-miterlimit:2"
       id="path21" /><path
       stroke-miterlimit="2"
       class="c1"
       d="m 483.25,406.94 h 10.287 v -45.87 h -10.29 z m 29.48,-45.87 v 19.265 h -11.46 l -1.317,8.3873 h 12.784 v 18.216 h 10.287 v -45.88 z"
       style="font-variant-ligatures:normal;fill:#f9f9f9;stroke-width:0;stroke-miterlimit:2"
       id="path24" /><path
       stroke-miterlimit="2"
       class="c1"
       d="m 552.52,392.85 c -2.4901,0 -4.9152,-0.72071 -7.0774,-1.9 l 4.3665,-11.786 -4.6157,-11.665 -16.001,39.438 h 10.485 l 2.5549,-6.9459 c 3.0801,1.245 6.4873,1.9009 10.157,1.9009 2.1519,0 4.1742,-0.26132 6.1313,-0.71582 l -3.4107,-8.6191 c -0.86324,0.17939 -1.7265,0.29181 -2.5891,0.29181 z"
       style="font-variant-ligatures:normal;fill:#f9f9f9;stroke-width:0;stroke-miterlimit:2"
       id="path27" /><path
       id="polygon29"
       d="M 106.19,74.798 H 94.24 l 19.95,50.402 h 12.02 z"
       style="font-variant-ligatures:normal;fill:#2ba3a0;stroke-width:0;stroke-miterlimit:2"
       transform="matrix(0.91,0,0,0.91,462.04,293)" /><path
       stroke-miterlimit="2"
       class="c1"
       d="m 619.69,406.87 h -11.598 l -8.1251,-15.005 h -6.6179 v 15.005 h -10.287 v -45.868 h 18.74 c 11.008,0 17.299,4.9148 17.299,15.006 0,7.7319 -3.2765,12.581 -9.2395,14.678 z m -10.222,-30.469 c 0,-5.0459 -2.9486,-6.9458 -8.2566,-6.9458 h -7.9287 v 14.022 h 7.9287 c 5.2423,-10e-6 8.2566,-1.9657 8.2566,-7.0765 z"
       style="font-variant-ligatures:normal;fill:#f9f9f9;stroke-width:0;stroke-miterlimit:2"
       id="path32" /><path
       stroke-miterlimit="2"
       class="c1"
       d="m 655.66,383.02 c 5.308,1.114 8.7152,5.5698 8.7152,11.401 0,7.7323 -6.2909,12.516 -16.447,12.516 h -21.16 v -45.87 h 20.379 c 9.6972,0 15.726,4.3247 15.726,11.27 0,4.718 -2.7522,8.5184 -7.208,9.8292 l -1.8342,0.52431 1.8342,0.3928 v -0.0653 z m -18.74,-3.2108 h 9.5666 c 3.5387,0 5.8324,-2.0968 5.8324,-5.3729 0,-3.2108 -2.2279,-5.2423 -5.8324,-5.2423 H 636.92 Z m 16.775,13.171 c 0,-3.4072 -2.7522,-5.5698 -7.208,-5.5698 h -9.5666 v 11.336 h 9.5666 c 4.4558,0 7.208,-2.2279 7.208,-5.7661 z"
       style="font-variant-ligatures:normal;fill:#f9f9f9;stroke-width:0;stroke-miterlimit:2"
       id="path35" /><path
       stroke-miterlimit="2"
       class="c1"
       d="m 719.32,383.94 c 0,13.433 -10.681,23.524 -24.835,23.524 -14.153,0 -24.834,-10.091 -24.834,-23.524 0,-13.236 10.681,-23.261 24.834,-23.261 14.154,0 24.835,10.026 24.835,23.261 z m -24.638,14.548 c 7.535,0 14.415,-6.3567 14.415,-14.482 0,-8.0598 -6.8801,-14.35 -14.415,-14.35 -7.6666,0 -14.678,6.2905 -14.678,14.35 0,7.9945 7.0774,14.482 14.612,14.482 z"
       style="font-variant-ligatures:normal;fill:#f9f9f9;stroke-width:0;stroke-miterlimit:2"
       id="path38" /><path
       stroke-miterlimit="2"
       class="c1"
       d="m 763.02,406.87 h -11.598 l -8.1251,-15.005 h -6.6179 v 15.005 h -10.287 v -45.868 h 18.74 c 11.008,0 17.299,4.9148 17.299,15.006 0,7.7319 -3.2765,12.581 -9.2395,14.678 z m -10.222,-30.469 c 0,-5.0459 -2.9486,-6.9458 -8.2566,-6.9458 h -7.9287 v 14.022 h 7.9287 c 5.2423,-10e-6 8.2566,-1.9657 8.2566,-7.0765 z"
       style="font-variant-ligatures:normal;fill:#f9f9f9;stroke-width:0;stroke-miterlimit:2"
       id="path41" /><path
       style="fill:#d3e9e8;stroke-width:0.24884"
       d="m 359.79,361.19 c -0.002,0 -1.1735,0.67571 -2.6041,1.5016 -1.4304,0.82584 -2.6026,1.5067 -2.6048,1.5129 -0.002,0.006 3.0251,1.7601 6.7273,3.8975 l 6.7313,3.8861 v 7.7791 c 0,4.2785 0.004,7.7791 0.009,7.7791 0.005,0 1.1815,-0.67696 2.6148,-1.5044 l 2.6078,-1.5055 v -15.567 l -6.7385,-3.8901 c -3.7052,-2.1395 -6.7385,-3.8901 -6.741,-3.8901 z m -6.637,3.8754 c -0.0113,7e-4 -3.0373,1.7432 -6.7241,3.8724 -3.6868,2.129 -6.7144,3.8794 -6.7278,3.8898 l -0.0245,0.0188 0.004,3.0127 0.004,3.0124 4.5311,-2.616 c 2.4921,-1.4387 4.8954,-2.8263 5.3405,-3.0833 0.44522,-0.2572 1.4362,-0.82942 2.2026,-1.2719 0.76619,-0.4423 1.3961,-0.80424 1.3996,-0.80424 0.004,0 3.0366,1.7495 6.74,3.8878 3.7034,2.1382 6.736,3.8878 6.739,3.8878 0.003,0 0.004,-1.3579 0.002,-3.0176 l -0.002,-3.0179 -6.731,-3.8861 c -3.7017,-2.1373 -6.74,-3.8856 -6.7514,-3.8848 z m 21.524,4.8672 -0.0242,-0.0134 -7.4e-4,7.7864 -5e-4,7.7864 -6.6278,3.8254 c -3.6452,2.1039 -6.6775,3.854 -6.738,3.8891 l -0.11027,0.0635 2.6056,1.5051 c 1.4329,0.82791 2.6123,1.5054 2.621,1.5057 0.009,2.5e-4 3.0453,-1.7485 6.748,-3.8861 l 6.732,-3.8866 -0.003,-7.7866 -0.003,-7.7866 -2.5872,-1.4944 c -1.423,-0.82181 -2.5981,-1.5003 -2.6113,-1.5076 z m -21.524,2.7832 c -0.004,5.5e-4 -3.038,1.7514 -6.7417,3.8906 l -6.7345,3.8898 v 15.566 l 2.6058,1.5045 c 1.4334,0.82749 2.61,1.5044 2.6148,1.5044 0.005,0 0.009,-3.5004 0.009,-7.7789 l 1.4e-4,-7.7789 6.7313,-3.8861 c 3.7024,-2.1374 6.7295,-3.8916 6.7275,-3.8978 -0.002,-0.006 -1.1742,-0.68722 -2.6046,-1.513 -1.4303,-0.82569 -2.6038,-1.5009 -2.608,-1.5003 z m -1.602,8.6886 c -0.006,6.9e-4 -1.1749,0.67462 -2.5981,1.4977 -1.4232,0.8232 -2.5951,1.5016 -2.6046,1.5078 -0.013,0.009 -0.0167,1.7114 -0.0167,7.7856 v 7.7744 l 0.0519,0.0335 c 0.0285,0.0183 3.058,1.7687 6.732,3.8896 3.6741,2.1208 6.6882,3.857 6.6982,3.858 0.01,7.4e-4 1.189,-0.67393 2.6202,-1.4995 1.4311,-0.82569 2.6023,-1.5043 2.6023,-1.508 1.4e-4,-0.004 -3.0114,-1.7455 -6.6925,-3.8704 -3.681,-2.1251 -6.7129,-3.8769 -6.7378,-3.8918 l -0.045,-0.0274 v -7.7756 c 0,-4.2765 -0.005,-7.7752 -0.0104,-7.7744 z m 1.3855,8.7334 c -0.0163,-0.006 -0.0192,0.43857 -0.0192,3.0072 v 3.0146 l 6.7328,3.8871 c 3.7029,2.138 6.7395,3.8888 6.7482,3.8906 0.008,0.002 3.0445,-1.7456 6.7465,-3.8831 l 6.7308,-3.8866 0.003,-3.0171 c 0.002,-1.6595 9.9e-4,-3.0174 -0.002,-3.0174 -0.003,0 -3.0358,1.7495 -6.7395,3.8878 l -6.7335,3.8868 -6.7238,-3.8818 c -3.6982,-2.135 -6.7328,-3.8868 -6.7432,-3.8893 z"
       id="icon" /></g></svg>