<?xml version="1.0" encoding="UTF-8" standalone="no"?>
<svg
   xmlns:dc="http://purl.org/dc/elements/1.1/"
   xmlns:cc="http://creativecommons.org/ns#"
   xmlns:rdf="http://www.w3.org/1999/02/22-rdf-syntax-ns#"
   xmlns:svg="http://www.w3.org/2000/svg"
   xmlns="http://www.w3.org/2000/svg"
   id="svg13"
   xml:space="preserve"
   viewBox="0 0 1024 768"
   height="768"
   width="1024"
   version="1.1"><metadata
     id="metadata17"><rdf:RDF><cc:Work
         rdf:about=""><dc:format>image/svg+xml</dc:format><dc:type
           rdf:resource="http://purl.org/dc/dcmitype/StillImage" /></cc:Work></rdf:RDF></metadata><desc
     id="desc2">Created with Fabric.js 5.3.0</desc><defs
     id="defs4" /><g
     id="backgroundElement"
     transform="translate(512.5,384.5)"><path
       id="rect6"
       d="M -512,-384 H 512 V 384 H -512 Z"
       style="opacity:1;fill:#ffffff;fill-opacity:0;fill-rule:nonzero;stroke:none;stroke-width:1;stroke-linecap:butt;stroke-linejoin:miter;stroke-miterlimit:4;stroke-dasharray:none;stroke-dashoffset:0" /></g><g
     id="g11"
     transform="translate(512,384)"><path
       id="path9"
       d="m 276.05,359.93 c -10.63,0 -17.44,5.48 -17.44,13.9 0,9.55 7.75,11.83 14.56,13.83 4.95,1.47 9.23,2.74 9.23,6.62 0,2.94 -2.34,4.68 -6.28,4.68 -4.88,0 -11.57,-2.88 -16.11,-6.89 l -4.01,8.42 c 5.41,4.55 12.83,7.29 19.98,7.29 10.63,0 17.51,-5.55 17.51,-14.1 0,-9.83 -7.82,-12.23 -14.77,-14.3 l -0.07,-0.14 c -4.81,-1.47 -9.02,-2.74 -9.02,-6.48 0,-2.47 2.01,-3.95 5.42,-3.95 3.67,0 9.42,1.94 14.16,4.75 l 3.95,-8.62 c -4.68,-3.14 -11.03,-5.01 -17.11,-5.01 z m 132.13,0.06 c -14.43,0 -25.33,10.23 -25.33,23.73 0,13.7 10.9,23.99 25.33,23.99 9.22,0 16.97,-4.21 21.38,-10.76 l -9.62,-4.28 c -2.74,3.61 -7.08,5.88 -11.63,5.88 l -0.06,0.07 c -7.69,0 -14.9,-6.62 -14.9,-14.77 0,-8.22 7.15,-14.63 14.96,-14.63 4.61,0 8.96,2.27 11.7,5.88 l 9.69,-4.35 c -4.41,-6.55 -12.23,-10.76 -21.52,-10.76 z m 289.93,0.07 c -14.44,0 -25.33,10.23 -25.33,23.73 0,13.69 10.89,23.99 25.33,23.99 14.43,0 25.32,-10.3 25.32,-23.99 0,-13.5 -10.89,-23.73 -25.32,-23.73 z m -400.96,0.33 v 8.83 h 37.48 v -8.83 z m 287.32,0 v 46.78 h 10.49 v -15.3 h 6.75 l 8.29,15.3 h 11.83 l -10.03,-16.5 c 6.09,-2.14 9.43,-7.09 9.43,-14.97 0,-10.29 -6.42,-15.31 -17.64,-15.31 z m 146.17,0 v 46.78 h 10.5 v -15.3 h 6.74 l 8.29,15.3 H 768 l -10.02,-16.5 c 6.08,-2.14 9.42,-7.09 9.42,-14.97 0,-10.29 -6.42,-15.31 -17.64,-15.31 z m -294.82,0.07 v 46.78 h 10.5 v -11.43 l 29.87,-35.35 h -11.96 l -17.91,21.52 v -21.52 z m 46.86,0 v 46.78 h 10.49 v -46.78 z m 30.07,0 v 19.65 h -11.7 l -1.34,8.55 h 13.04 v 18.58 h 10.49 v -46.78 z m 35.76,0 18.51,46.78 h 11.16 L 559.6,360.46 Z m 80.53,0 v 46.78 h 21.59 c 10.36,0 16.77,-4.88 16.77,-12.76 0,-5.95 -3.47,-10.49 -8.88,-11.63 v 0.07 l -1.88,-0.4 1.88,-0.54 c 4.54,-1.34 7.35,-5.21 7.35,-10.02 0,-7.09 -6.15,-11.5 -16.04,-11.5 z m -272.27,0.13 h -0.01 c 0,0 -1.19,0.69 -2.65,1.53 -1.46,0.84 -2.66,1.54 -2.66,1.54 0,0.01 3.09,1.8 6.86,3.98 l 6.87,3.96 v 7.93 c 0,4.37 0,7.94 0.01,7.94 0,0 1.2,-0.69 2.66,-1.54 l 2.66,-1.53 v -15.88 l -6.87,-3.97 c -3.78,-2.18 -6.87,-3.96 -6.87,-3.96 z m -6.78,3.95 c -0.01,0 -3.09,1.78 -6.85,3.95 -3.76,2.17 -6.85,3.95 -6.86,3.97 l -0.03,0.01 0.01,3.08 v 3.07 l 4.62,-2.67 c 2.54,-1.47 4.99,-2.88 5.45,-3.14 0.45,-0.27 1.46,-0.85 2.24,-1.3 0.78,-0.45 1.43,-0.82 1.43,-0.82 0,0 3.1,1.78 6.88,3.96 3.77,2.19 6.86,3.97 6.87,3.97 v -3.08 -3.08 l -6.87,-3.96 c -3.77,-2.18 -6.87,-3.96 -6.88,-3.96 z m 195.86,2.48 -16.32,40.22 h 10.69 l 2.61,-7.08 c 3.14,1.27 6.61,1.94 10.35,1.94 2.2,0 4.26,-0.27 6.26,-0.73 l -3.48,-8.8 c -0.88,0.19 -1.76,0.3 -2.64,0.3 -2.54,0 -5.02,-0.73 -7.22,-1.93 l 4.45,-12.02 z m 93.55,1.73 h 9.76 c 3.67,0 5.95,2.07 5.95,5.34 0,3.34 -2.34,5.48 -5.95,5.48 h -9.76 z m -44.5,0.27 h 8.08 c 5.42,0 8.42,1.93 8.42,7.08 0,5.21 -3.07,7.22 -8.42,7.22 h -8.08 z m 146.17,0 h 8.08 c 5.42,0 8.43,1.93 8.43,7.08 0,5.21 -3.08,7.22 -8.43,7.22 h -8.08 z m -42.76,0.2 c 7.68,0 14.7,6.41 14.7,14.63 0,8.29 -7.02,14.77 -14.7,14.77 h -0.07 c -7.68,0 -14.9,-6.62 -14.9,-14.77 0,-8.22 7.15,-14.63 14.97,-14.63 z m -326.39,0.27 v 7.94 7.94 l -6.76,3.9 c -3.72,2.15 -6.81,3.93 -6.87,3.97 l -0.11,0.06 2.65,1.54 c 1.47,0.84 2.67,1.53 2.68,1.54 0.01,0 3.1,-1.79 6.88,-3.97 l 6.86,-3.96 v -7.94 -7.95 l -2.64,-1.52 c -1.45,-0.84 -2.65,-1.53 -2.66,-1.54 z m -21.93,2.85 c 0,0 -3.09,1.79 -6.87,3.97 l -6.87,3.97 v 15.87 l 2.66,1.54 c 1.46,0.84 2.66,1.53 2.66,1.53 0.01,0 0.01,-3.57 0.01,-7.93 v -7.94 l 6.87,-3.96 c 3.78,-2.18 6.86,-3.97 6.86,-3.97 0,-0.01 -1.2,-0.7 -2.66,-1.55 -1.45,-0.84 -2.65,-1.53 -2.66,-1.53 z m -34.83,0.44 c -1.47,0.05 -3.06,0.5 -4.58,1.72 h -0.07 v 32.67 H 321 V 374.5 c 0,0 -2.62,-1.84 -5.84,-1.72 z m 33.2,8.42 c 0,0 -1.2,0.69 -2.65,1.53 -1.45,0.84 -2.65,1.53 -2.66,1.54 -0.01,0.01 -0.01,1.74 -0.01,7.94 v 7.93 l 0.05,0.03 c 0.03,0.02 3.12,1.81 6.87,3.97 3.74,2.16 6.82,3.93 6.83,3.93 0.01,0 1.21,-0.69 2.67,-1.53 1.46,-0.84 2.65,-1.53 2.65,-1.53 0,-0.01 -3.07,-1.78 -6.82,-3.95 -3.76,-2.17 -6.85,-3.95 -6.87,-3.97 l -0.05,-0.03 v -7.93 c 0,-4.36 0,-7.93 -0.01,-7.93 z m 115.71,5.5 c -1.28,-0.07 -6.49,0.1 -7.66,7.18 l 8.55,13.43 h 12.56 l -13.16,-20.59 c 0,0 -0.1,-0.01 -0.29,-0.02 z m 175.33,0.63 h 9.76 c 4.54,0 7.35,2.2 7.35,5.68 0,3.6 -2.81,5.88 -7.35,5.88 h -9.76 z m -262.15,2.78 c 0,0 -3.1,1.78 -6.87,3.96 l -6.87,3.96 -6.86,-3.96 c -3.77,-2.17 -6.87,-3.96 -6.88,-3.96 -0.01,-0.01 -0.02,0.45 -0.02,3.07 v 3.07 l 6.87,3.96 c 3.78,2.19 6.88,3.97 6.88,3.97 0.01,0.01 3.11,-1.78 6.88,-3.96 l 6.87,-3.96 v -3.08 z"
       transform="translate(-512,-384)"
       style="opacity:1;fill:#313879;fill-rule:nonzero;stroke:none;stroke-width:1;stroke-linecap:butt;stroke-linejoin:miter;stroke-miterlimit:4;stroke-dasharray:none;stroke-dashoffset:0" /></g></svg>